<?xml version="1.0" encoding="iso-8859-1"?>
<!-- Uploaded to: SVG Repo, www.svgrepo.com, Generator: SVG Repo Mixer Tools -->
<svg height="800px" width="800px" version="1.1" id="Layer_1" xmlns="http://www.w3.org/2000/svg" xmlns:xlink="http://www.w3.org/1999/xlink" 
	 viewBox="0 0 512 512" xml:space="preserve">
<circle style="fill:#ECF0F1;" cx="256" cy="256" r="245.551"/>
<path style="fill:#DF5F4E;" d="M323.405,166.801c-31.023,0-57.439,21.646-67.405,51.929c-9.966-30.283-36.381-51.929-67.405-51.929
	c-39.572,0-71.651,35.216-71.651,78.658C116.944,327.03,256,394.617,256,394.617s139.056-67.587,139.056-149.158
	C395.056,202.017,362.977,166.801,323.405,166.801z"/>
<g>
	<path style="fill:#231F20;" d="M437.019,74.981C388.668,26.628,324.38,0,256,0S123.332,26.628,74.981,74.981S0,187.62,0,256
		s26.628,132.668,74.981,181.019S187.62,512,256,512s132.668-26.628,181.019-74.981S512,324.38,512,256
		S485.372,123.332,437.019,74.981z M256,491.102C126.365,491.102,20.898,385.635,20.898,256S126.365,20.898,256,20.898
		S491.102,126.365,491.102,256S385.635,491.102,256,491.102z"/>
	<path style="fill:#231F20;" d="M256,41.796C137.887,41.796,41.796,137.888,41.796,256S137.887,470.204,256,470.204
		S470.204,374.112,470.204,256S374.113,41.796,256,41.796z M256,449.306C149.411,449.306,62.694,362.59,62.694,256
		S149.411,62.694,256,62.694S449.306,149.41,449.306,256S362.589,449.306,256,449.306z"/>
	<path style="fill:#231F20;" d="M323.405,156.352c-27.246,0-52.298,14.714-67.405,38.219c-15.107-23.505-40.16-38.219-67.405-38.219
		c-45.27,0-82.1,39.974-82.1,89.107c0,87.108,139.019,155.679,144.937,158.556c1.442,0.701,3.005,1.051,4.568,1.051
		c1.563,0,3.126-0.35,4.568-1.051c5.918-2.877,144.937-71.448,144.937-158.556C405.505,196.326,368.674,156.352,323.405,156.352z
		 M255.997,382.881c-23.409-12.28-128.604-71.166-128.604-137.422c0-37.61,27.455-68.209,61.202-68.209
		c25.573,0,48.671,17.983,57.48,44.747c1.411,4.286,5.414,7.183,9.925,7.183c4.512,0,8.515-2.896,9.925-7.183
		c8.809-26.764,31.907-44.747,57.48-44.747c33.747,0,61.202,30.599,61.202,68.209C384.607,311.625,279.394,370.591,255.997,382.881z
		"/>
</g>
</svg>