<?xml version="1.0" encoding="UTF-8"?>
<svg version="1.1" viewBox="0 0 2048 1184" width="657" height="380" xmlns="http://www.w3.org/2000/svg">
<path transform="translate(998)" d="m0 0h49l36 3 41 6 34 7 30 8 36 12 32 13 32 15 22 12 25 15 24 16 13 10 14 11 16 13 13 12 10 9 27 27 7 8 12 14 13 16 14 19 15 22 12 19 13 23 16 32 13 31 13 38 10 35 7 34 5 34 3 35 1 17v30l-2 37-4 33-5 30-7 32-12 39-9 25-11 26-12 25-11 21-17 28-13 20-13 18-11 14-14 17-7 8-12 13-10 10-4 5-5 4-15 15-11 9-13 11-30 23-29 19-18 11-26 14-25 12-24 10-37 13-27 8-36 8-39 6-28 3-15 1h-59l-38-3-42-6-31-7-36-10-35-12-35-15-42-22-23-14-20-14-14-10-13-10-10-8-13-11-10-9-8-7-27-27-7-8-13-15-9-11-13-17-13-18-13-20-9-15-15-26-15-31-11-27-9-25-7-23-7-25-7-34-5-37-3-35v-56l2-31 5-39 7-34 7-27 12-37 13-33 12-26 10-20 14-24 11-18 15-22 16-21 13-16 9-10 9-11 35-35 8-7 13-11 14-11 17-13 19-13 19-12 15-9 28-15 37-17 30-11 33-11 37-9 44-8 37-4zm-4 83-32 3-43 7-30 7-36 12-21 8-20 9-29 14-15 9-17 10-12 8-17 12-13 10-13 11-8 7-14 12-25 25-7 8-9 10-11 14-15 20-18 27-12 21-14 27-11 24-9 23-8 24-10 38-6 31-4 35-1 12-1 40 1 26 4 38 5 30 7 28 10 34 11 29 9 20 14 29 11 19 11 17 13 19 10 13 12 14 11 13 7 8 12 13 15 14 13 12 11 9 15 12 19 13 10 7 20 12 16 9 27 14 28 12 40 14h4v-107l-10 1-18 3-25 2h-19l-26-3-19-5-20-8-14-8-13-10-9-9-10-13-8-14-16-33-11-19-9-12-9-10-4-5-8-7-11-9-11-8-10-8-4-7v-5l5-4 11-3h15l17 3 13 5 12 6 14 10 14 14 10 13 14 20 11 13 9 9 11 8 14 8 15 6 20 4h27l19-3 23-6 12-5 2-5 4-20 6-17 9-17 11-14 3-4v-2l-36-6-40-9-25-8-21-8-19-9-19-12-13-10-13-11-16-16-13-17-11-17-8-16-8-18-7-21-6-26-4-25-2-20-1-22v-31l2-22 6-29 9-27 11-22 11-18 13-16 5-6-1-8-5-21-3-23v-38l4-26 6-23 6-15 2-3 4-1h10l21 3 19 5 27 10 20 9 23 12 22 13 12 7 11-2 42-8 31-4 37-3h60l38 3 29 4 31 7 13 3 18-11 24-14 28-14 26-10 21-6 25-4h13l3 1 7 16 7 25 4 26 1 12v21l-3 23-4 17-3 9v5l11 13 12 17 14 27 7 19 6 20 4 22 2 24v38l-2 28-5 32-5 20-11 33-9 20-9 15-10 14-8 10-13 14-8 7-12 10-18 12-18 10-23 10-27 9-32 8-37 7-16 3 1 3 5 5 11 14 8 16 6 17 4 17 2 16 1 18 1 176 27-9 29-12 28-13 26-14 19-12 16-11 15-11 12-9 11-9 14-12 14-14 8-7 7-7v-2h2l7-8 11-13 20-25 10-14 10-15 12-20 12-22 13-27 11-28 13-40 7-28 5-28 5-41 1-12v-53l-3-34-5-32-7-32-7-26-10-29-13-31-8-16-11-21-10-17-10-16-13-19-10-13-11-14-13-15-9-10-28-28-11-9-17-14-19-14-16-11-18-11-21-12-22-11-26-12-27-10-25-8-36-9-36-6-26-3-19-1z" fill="#CBCCCC"/>
</svg>
