<svg class="svg-icon" style="width: 1em;height: 1em;vertical-align: middle;fill: currentColor;overflow: hidden;" viewBox="0 0 1024 1024" version="1.1" xmlns="http://www.w3.org/2000/svg"><path d="M718.9 461.126l-86.652-54.686-108.014-20s-82.654-8-89.324 0c-6.672 8-149.324 95.996-149.324 95.996l-77.342 107.998-8 75.996-10.654 165.558h78.652l22.672-191.994 46.67-97.558s66.654-49.312 70.654-49.312S512 470.438 512 470.438l68.248 17.342 103.996 52 46.654 67.998 28 183.992-5.344 40.218h74.688V627.778l-109.342-166.652z" fill="#5D9CEC" /><path d="M876.24 526.438l-108.248-133.996-95.746-60.656-148.668-25.998H445.58l-93.34 29.998-129.324 83.998-75.326 118.654-29.998 186.68-14.672 106.874h74.67l13.328-90.216 3.998-114.652 26.672-53.998 66.654-97.342 48.67-39.998 59.326-29.344 94.668-14s82.654 3.342 88.654 4.686c6 1.312 103.34 34.656 103.34 34.656l99.998 91.434 25.344 69.216 17.312 43.342v108.652l2.688 87.56h77.306v-183.558l-29.308-121.992z" fill="#A0D468" /><path d="M997.548 662.432l-52-202.65-110.65-130.652-142.654-89.34-168.01-25.342h-98.652l-105.342 37.342-102.652 62.654L118.92 418.44l-62.67 104.778-33.328 163.214v145.558H102.92l6.672-218.866 27.998-83.998 67.998-99.998 83.998-66.466 111.996-48.218 129.324-9.312 111.998 19.998 141.338 81.31 109.306 155.996 26.688 269.554h83.998z" fill="#FC6E51" /><path d="M512 448.002c-141.386 0-255.992 114.59-255.992 255.992v127.996h42.672v-127.996c0-56.998 22.186-110.558 62.48-150.87 40.282-40.282 93.858-62.468 150.84-62.468 56.998 0 110.56 22.188 150.84 62.468 40.28 40.31 62.464 93.872 62.464 150.87v127.996h42.688v-127.996c0-141.402-114.62-255.992-255.992-255.992z" fill="#AC92EB" /><path d="M512 362.662c-188.51 0-341.316 152.808-341.316 341.334v127.996h42.654v-127.996c0-40.344 7.89-79.466 23.454-116.246 15.044-35.56 36.592-67.498 64.03-94.966 27.436-27.436 59.386-48.966 94.95-63.998 36.782-15.562 75.888-23.468 116.23-23.468 40.344 0 79.436 7.906 116.248 23.468 35.56 15.032 67.496 36.56 94.932 63.998 27.438 27.468 49 59.406 64.032 94.966 15.562 36.78 23.468 75.902 23.468 116.246v127.996h42.624v-127.996c-0.004-188.528-152.812-341.334-341.306-341.334z" fill="#4FC2E9" /><path d="M512 277.32c-235.632 0-426.658 191.024-426.658 426.674v127.996h42.67v-127.996c0-51.876 10.14-102.152 30.156-149.464 19.344-45.716 47.03-86.778 82.308-122.058 35.282-35.282 76.36-62.998 122.074-82.31 47.312-20.032 97.592-30.156 149.45-30.156 51.874 0 102.124 10.124 149.434 30.156 45.748 19.312 86.808 47.03 122.09 82.31s62.966 76.34 82.31 122.058c20.03 47.312 30.152 97.59 30.152 149.464v127.996h42.688v-127.996c0-235.65-191.056-426.674-426.674-426.674z" fill="#FFCE54" /><path d="M512 192.01C229.244 192.01 0.016 421.222 0.016 703.994v127.996h42.672v-127.996c0-63.404 12.39-124.84 36.858-182.682 23.64-55.874 57.482-106.09 100.592-149.182 43.124-43.126 93.308-76.966 149.198-100.59 57.826-24.468 119.292-36.876 182.666-36.876s124.842 12.406 182.682 36.876c55.874 23.624 106.06 57.466 149.184 100.59 43.124 43.092 76.934 93.308 100.59 149.182 24.468 57.842 36.844 119.278 36.844 182.682v127.996h42.686v-127.996C1023.984 421.222 794.742 192.01 512 192.01z" fill="#ED5564" /></svg>